PathFileType	4	(X/Y/Z)	C:\Users\dbl\Desktop\20210112\20210112\bx_n_5_501.trc
DataRate	CameraRate	NumFrames	NumMarkers	Units	OrigDataRate	OrigDataStartFrame	OrigNumFrames
50.00	50.00	       4	43	mm	50.00	194	       517
Frame#	Time	Top.Head			R.Acromium			L.Acromium			Sternum			R.ASIS			L.ASIS			V.Sacral			R.Thigh.Upper			R.Thigh.Front			R.Thigh.Rear			R.Knee.Lat			R.Knee.Med			R.Shank.Upper			R.Shank.Front			R.Shank.Rear			R.Ankle.Lat			R.Midfoot.Lat			R.Toe.Lat			R.Toe.Tip			R.Toe.Med			R.Ankle.Med			R.Midfoot.Sup			R.Heel			L.Thigh.Upper			L.Thigh.Front			L.Thigh.Rear			L.Knee.Lat			L.Knee.Med			L.Shank.Upper			L.Shank.Front			L.Shank.Rear			L.Ankle.Lat			L.Midfoot.Lat			L.Toe.Lat			L.Toe.Tip			L.Toe.Med			L.Ankle.Med			L.Midfoot.Sup			L.Heel			origin1 front left			origin2 front right			origin 3 back right			origin 4 back leftt			
		X1	Y1	Z1	X2	Y2	Z2	X3	Y3	Z3	X4	Y4	Z4	X5	Y5	Z5	X6	Y6	Z6	X7	Y7	Z7	X8	Y8	Z8	X9	Y9	Z9	X10	Y10	Z10	X11	Y11	Z11	X12	Y12	Z12	X13	Y13	Z13	X14	Y14	Z14	X15	Y15	Z15	X16	Y16	Z16	X17	Y17	Z17	X18	Y18	Z18	X19	Y19	Z19	X20	Y20	Z20	X21	Y21	Z21	X22	Y22	Z22	X23	Y23	Z23	X24	Y24	Z24	X25	Y25	Z25	X26	Y26	Z26	X27	Y27	Z27	X28	Y28	Z28	X29	Y29	Z29	X30	Y30	Z30	X31	Y31	Z31	X32	Y32	Z32	X33	Y33	Z33	X34	Y34	Z34	X35	Y35	Z35	X36	Y36	Z36	X37	Y37	Z37	X38	Y38	Z38	X39	Y39	Z39	X40	Y40	Z40	X41	Y41	Z41	X42	Y42	Z42	X43	Y43	Z43	

194	3.860	-243.69989	143.37445	1534.32617	-407.96960	-40.02917	1285.41858	-423.65433	295.49182	1287.60864	-519.61749	113.75568	1118.82410	-750.47351	6.37659	1009.47571	-753.04456	251.14264	1030.46631	-935.84192	104.44249	1090.68237	-824.72144	-61.44458	866.52441	-737.08783	2.74857	806.19757	-821.22015	-57.25183	749.36481	-806.63232	-31.16116	610.11682	-786.97620	77.05276	565.62549	-804.61145	-30.08546	563.13391	-746.00085	19.28951	525.62250	-827.63641	-46.74631	476.93509	-763.24768	-23.63685	204.88222	-648.33893	-67.79877	161.47607	-605.87769	-73.16499	156.48024	-548.91418	-21.80477	162.36603	-600.76147	28.46850	167.01910	-727.59277	66.31573	220.23494	-675.60236	51.33558	162.57094	-795.00092	34.65051	173.96774	-849.50568	295.80829	866.25299	-740.82391	233.08820	793.11896	-830.83307	288.40710	732.66144	-838.51996	262.31985	629.05975	-787.26935	156.92966	572.88983	-825.66888	257.04730	564.74438	-763.17841	216.00688	537.62891	-847.98981	268.68652	485.37830	-773.96417	231.53336	201.90974	-660.32941	298.60217	156.08661	-623.61127	306.64005	158.56137	-558.11823	253.63261	163.44801	-594.96613	218.20155	173.71002	-721.67603	159.20470	223.79297	-677.50269	175.38408	163.53401	-799.93848	182.99086	181.72362	-527.90204	304.18051	146.61507	-517.97516	-72.85773	143.14561	-875.90594	-78.64084	141.24561	-882.60101	296.14438	144.81339	
195	3.880	-251.12695	143.23627	1544.51453	-411.47754	-40.08299	1291.98987	-426.84622	295.93134	1294.56860	-520.93823	114.08881	1124.13965	-749.19849	6.61740	1010.80481	-752.08142	251.37329	1031.50256	-935.62305	104.48581	1090.29846	-823.00262	-61.42613	866.94940	-735.75256	2.80194	806.31018	-819.99066	-56.98416	749.63550	-805.74072	-31.11935	610.22632	-786.05957	77.13611	565.83472	-803.73547	-29.96003	563.25653	-745.19305	19.42290	525.60950	-826.98389	-46.62344	477.05417	-763.30505	-23.63098	204.90822	-648.33374	-67.80103	161.48523	-605.90228	-73.20324	156.53065	-548.96112	-21.86087	162.42172	-600.78223	28.47652	167.04567	-727.55255	66.31129	220.23384	-675.62048	51.31948	162.61432	-794.99725	34.67321	173.94994	-848.31091	295.82974	866.46265	-739.59644	233.43591	793.48120	-829.94751	288.23837	732.79102	-837.65796	262.49011	629.28638	-786.57489	157.18057	572.87750	-824.93292	257.40109	565.02258	-762.54462	216.29350	537.62341	-847.37537	268.91483	485.57138	-773.97833	231.64914	201.87471	-660.32275	298.59750	156.05910	-623.64813	306.63129	158.48811	-558.15942	253.66275	163.51138	-595.04993	218.40813	173.85490	-721.63251	159.27473	223.77019	-677.53992	175.48154	163.50983	-799.94531	183.03654	181.68248	-527.91882	304.21829	146.65021	-518.02783	-72.78731	143.08591	-875.88647	-78.61372	141.21533	-882.59412	296.15762	144.81978	
196	3.900	-258.76462	143.01497	1554.77173	-415.10510	-40.09818	1298.74463	-430.27084	296.39752	1301.65198	-522.26538	114.42609	1129.56836	-747.88129	6.81758	1012.14978	-751.02625	251.58009	1032.57703	-935.25623	104.47934	1089.84204	-821.27319	-61.42828	867.34210	-734.35645	2.83377	806.45441	-818.74164	-56.72382	749.93420	-804.82764	-31.08738	610.36169	-785.11682	77.25105	565.99878	-802.89307	-29.89885	563.44623	-744.36469	19.52625	525.58502	-826.31989	-46.54091	477.22089	-763.37616	-23.58904	204.92575	-648.33478	-67.79508	161.48860	-605.91168	-73.22719	156.54793	-549.01050	-21.91234	162.49945	-600.80182	28.46401	167.05423	-727.44208	66.24355	220.20659	-675.64508	51.30493	162.62355	-795.00818	34.73956	173.91823	-846.96082	295.88181	866.70050	-738.22186	233.79102	793.85291	-828.88574	288.12067	732.98529	-836.68256	262.64246	629.51965	-785.91357	157.34584	572.82941	-824.08911	257.71591	565.25885	-761.80029	216.55913	537.62396	-846.62152	269.12411	485.79266	-773.96570	231.75591	201.86142	-660.31818	298.59610	156.03806	-623.69159	306.62137	158.40228	-558.22357	253.68150	163.57886	-595.07471	218.65125	173.98129	-721.59296	159.33238	223.75969	-677.58954	175.52145	163.47919	-799.94354	183.04266	181.67975	-527.94232	304.26483	146.67987	-518.04175	-72.78591	143.07426	-875.87091	-78.58653	141.20966	-882.57886	296.16748	144.81966	
197	3.920	-266.58237	142.73862	1565.08411	-418.88434	-40.10152	1305.69885	-433.90137	296.85251	1308.87292	-523.59760	114.76750	1135.10815	-746.52130	6.97271	1013.52374	-749.89819	251.81190	1033.74231	-934.65295	104.51333	1089.27112	-819.69702	-61.31928	867.65320	-732.89154	2.84076	806.64453	-817.54694	-56.49286	750.23547	-803.88049	-30.99858	610.51996	-784.14557	77.38089	566.06989	-802.07910	-29.84714	563.68347	-743.52826	19.54661	525.58057	-825.64648	-46.49853	477.45929	-763.42188	-23.51151	204.93564	-648.36212	-67.77965	161.47856	-605.92377	-73.23220	156.53035	-549.05396	-21.93610	162.56161	-600.81781	28.42834	167.05968	-727.26855	66.09647	220.10831	-675.67609	51.31278	162.62201	-795.02429	34.83241	173.88445	-845.43280	295.93008	866.95355	-736.68872	234.13074	794.14136	-827.67249	288.05658	733.26483	-835.63074	262.78793	629.77246	-785.25958	157.43401	572.76135	-823.19598	257.97586	565.43121	-760.98071	216.74458	537.64343	-845.83630	269.26740	485.97769	-773.92310	231.83171	201.85658	-660.32697	298.60498	156.02707	-623.74017	306.62531	158.30728	-558.29211	253.69272	163.62686	-595.05817	218.84048	174.06076	-721.54724	159.35794	223.73454	-677.67188	175.48749	163.42792	-799.91766	183.03226	181.69482	-527.96667	304.29913	146.67035	-518.01508	-72.85239	143.11458	-875.86212	-78.57359	141.21230	-882.57074	296.16904	144.80965	
